#!OML:ASF E:\emotionWalksFemale\Project 1\Capture day 1\Session 1\Female1.ASF
:FULLY-SPECIFIED
:DEGREES
1809
root 8.71984 15.6102 -23.3909 361.292 12.697 -362.014
lowerback 6.6032 -0.668603 3.87324
upperback -5.05654 -0.324549 1.81505
thorax -9.09034 -0.332111 -0.200579
lowerneck 3.51914 -11.4361 -10.4787
upperneck -0.295855 -15.6774 9.92559
head 0.957532 -7.9117 4.41419
rclavicle -1.86858e-014 -3.97569e-016
rhumerus -34.2981 3.05132 -81.766
rradius 33.1374
rwrist 18.9959
rhand -2.06122 -52.2403
rfingers 7.12502
rthumb 23.6147 -80.8101
lclavicle -1.86858e-014 -3.97569e-016
lhumerus -36.0338 -1.29561 92.136
lradius 45.0667
lwrist -2.71208
lhand -7.63216 -34.4888
lfingers 7.12502
lthumb 18.2627 -5.32613
rfemur -4.66409 24.0346 31.4556
rtibia 12.9749
rfoot -14.5822 -38.1616
rtoes 26.4448
lfemur -18.376 1.21973 -15.1923
ltibia 68.5756
lfoot 0.825257 0.287113
ltoes -9.76856
1810
root 8.71776 15.6025 -23.3442 361.25 12.547 -361.978
lowerback 6.79459 -0.534389 4.01572
upperback -5.04759 -0.132668 1.64726
thorax -9.18898 -0.255543 -0.484663
lowerneck 3.81146 -11.5291 -10.5234
upperneck -0.347823 -15.831 10.1662
head 0.934684 -7.99762 4.50287
rclavicle -3.38431e-014 -2.34566e-014
rhumerus -34.4438 3.25024 -82.1812
rradius 33.4289
rwrist 18.737
rhand -2.30406 -52.1467
rfingers 7.12502
rthumb 23.3817 -80.7464
lclavicle -3.38431e-014 -2.34566e-014
lhumerus -36.1054 -1.82304 92.3384
lradius 46.1532
lwrist -1.43067
lhand -8.03521 -34.7017
lfingers 7.12502
lthumb 17.875 -5.50319
rfemur -4.75156 24.0976 31.5906
rtibia 13.5999
rfoot -15.2441 -38.0544
rtoes 27.5398
lfemur -19.3538 1.16639 -15.4612
ltibia 68.8105
lfoot -0.400931 1.15807
ltoes -10.3695
1811
root 8.71411 15.6013 -23.2935 361.369 12.4799 -361.789
lowerback 6.85872 -0.465938 3.93096
upperback -5.06393 -0.0557872 1.5315
thorax -9.24083 -0.218171 -0.570925
lowerneck 3.92567 -11.5669 -10.8084
upperneck -0.240583 -15.9165 10.5117
head 1.00813 -8.04583 4.64018
rclavicle 1.92821e-014 -5.96354e-015
rhumerus -34.5649 3.64284 -82.5083
rradius 33.8722
rwrist 18.3974
rhand -1.79871 -52.6746
rfingers 7.12502
rthumb 23.8664 -81.2118
lclavicle 1.92821e-014 -5.96354e-015
lhumerus -36.1172 -1.9784 92.5037
lradius 47.2185
lwrist -0.596535
lhand -8.02444 -35.0215
lfingers 7.12502
lthumb 17.8853 -5.82392
rfemur -4.99005 23.132 31.4678
rtibia 14.174
rfoot -15.4731 -37.1472
rtoes 27.3747
lfemur -20.3878 0.957144 -15.9081
ltibia 68.9063
lfoot -1.53073 1.95972
ltoes -10.6117
1812
root 8.70703 15.5963 -23.2396 361.4 12.5994 -361.593
lowerback 6.96321 -0.456083 3.78435
upperback -5.02435 -0.0647071 1.41577
thorax -9.25807 -0.217506 -0.610361
lowerneck 3.94607 -11.5614 -11.1011
upperneck -0.566504 -15.912 11.0498
head 0.976321 -8.04815 4.8483
rclavicle 1.95803e-014 -7.95139e-015
rhumerus -34.6617 3.98838 -82.8485
rradius 34.4375
rwrist 17.8884
rhand -1.28863 -53.0219
rfingers 7.12502
rthumb 24.3555 -81.4942
lclavicle 1.95803e-014 -7.95139e-015
lhumerus -36.1207 -2.13909 92.5987
lradius 48.4089
lwrist 0.0741932
lhand -7.77115 -35.1682
lfingers 7.12502
lthumb 18.129 -5.99308
rfemur -5.01684 22.8174 31.4304
rtibia 14.6763
rfoot -15.2489 -37.0273
rtoes 26.0563
lfemur -21.2763 0.594438 -16.3318
ltibia 68.9044
lfoot -2.54621 2.54337
ltoes -12.2582
1813
root 8.70074 15.5864 -23.1847 361.32 12.6453 -361.604
lowerback 6.99626 -0.429924 3.87482
upperback -4.927 -0.0302921 1.31158
thorax -9.17018 -0.208404 -0.777871
lowerneck 4.33027 -11.6258 -11.2792
upperneck -0.840615 -16.0301 11.4351
head 0.893992 -8.12173 5.01355
rclavicle 1.45113e-014 -8.74653e-015
rhumerus -34.706 4.29941 -83.3061
rradius 34.9579
rwrist 17.4067
rhand -1.30341 -52.7388
rfingers 7.12502
rthumb 24.3414 -81.213
lclavicle 1.45113e-014 -8.74653e-015
lhumerus -36.3222 -2.41617 92.6377
lradius 49.6755
lwrist 0.533778
lhand -7.73593 -35.0402
lfingers 7.12502
lthumb 18.1629 -5.86819
rfemur -4.93004 22.653 31.6479
rtibia 15.1703
rfoot -15.1372 -36.9958
rtoes 25.1558
lfemur -22.0566 0.344611 -16.5019
ltibia 68.8243
lfoot -3.62596 2.98166
ltoes -14.0211
1814
root 8.69816 15.5763 -23.1269 361.316 12.5746 -361.601
lowerback 6.90386 -0.371386 3.97574
upperback -4.85298 0.043922 1.21846
thorax -9.03177 -0.179346 -0.945507
lowerneck 4.37425 -11.6956 -11.3966
upperneck -0.844507 -16.1357 11.5545
head 0.917294 -8.17675 5.06133
rclavicle 1.78906e-014 2.78299e-015
rhumerus -34.7876 4.67718 -83.7507
rradius 35.3636
rwrist 16.9951
rhand -1.35041 -52.6831
rfingers 7.12502
rthumb 24.2963 -81.1634
lclavicle 1.78906e-014 2.78299e-015
lhumerus -36.5962 -2.60325 92.6831
lradius 50.7304
lwrist 0.754779
lhand -8.01722 -35.2719
lfingers 7.12502
lthumb 17.8923 -6.07492
rfemur -4.90126 22.2983 31.7964
rtibia 15.633
rfoot -15.53 -36.6777
rtoes 25.0714
lfemur -22.8334 0.0893555 -16.7068
ltibia 68.648
lfoot -4.77751 3.54451
ltoes -12.1549
1815
root 8.69431 15.5656 -23.0699 361.279 12.5311 -361.688
lowerback 6.9644 -0.314487 4.10526
upperback -4.82445 0.132867 1.17142
thorax -9.03286 -0.145644 -1.08113
lowerneck 4.41674 -11.8279 -11.3632
upperneck -0.816174 -16.3171 11.4686
head 0.929409 -8.26764 5.02378
rclavicle 5.76476e-015 2.38542e-015
rhumerus -34.9367 5.02629 -84.1348
rradius 35.7333
rwrist 16.4888
rhand -1.5409 -52.5504
rfingers 7.12502
rthumb 24.1137 -81.055
lclavicle 5.76476e-015 2.38542e-015
lhumerus -36.6632 -2.80145 92.766
lradius 51.4366
lwrist 0.877852
lhand -8.29145 -35.8852
lfingers 7.12502
lthumb 17.6284 -6.66432
rfemur -4.85298 22.0222 32.0331
rtibia 16.0431
rfoot -16.0173 -36.3811
rtoes 25.1369
lfemur -23.6078 -0.251616 -16.8016
ltibia 68.3886
lfoot -5.79424 4.24948
ltoes -9.25466
1816
root 8.6918 15.5504 -23.0175 361.172 12.5181 -361.912
lowerback 7.17754 -0.283852 4.38441
upperback -4.84843 0.215955 1.14522
thorax -9.18271 -0.126685 -1.27714
lowerneck 4.64111 -11.8878 -11.3448
upperneck -0.974908 -16.4081 11.5242
head 0.860543 -8.32045 5.05397
rclavicle -1.26477e-014 7.55382e-015
rhumerus -35.1709 5.42872 -84.557
rradius 36.1661
rwrist 16.0235
rhand -1.82082 -52.1519
rfingers 7.12502
rthumb 23.8452 -80.6918
lclavicle -1.26477e-014 7.55382e-015
lhumerus -36.7471 -3.0374 92.8224
lradius 52.0121
lwrist 0.874012
lhand -8.47409 -36.3787
lfingers 7.12502
lthumb 17.4526 -7.14219
rfemur -4.78556 21.6759 32.3953
rtibia 16.4262
rfoot -16.3877 -36.0517
rtoes 25.1484
lfemur -24.4148 -0.608711 -16.7434
ltibia 68.0687
lfoot -6.73432 4.88094
ltoes -9.77469
1817
root 8.69225 15.5341 -22.9643 361.087 12.5021 -362.057
lowerback 7.26861 -0.280553 4.59487
upperback -4.81603 0.24698 1.12891
thorax -9.20061 -0.125472 -1.41723
lowerneck 4.8398 -11.8796 -11.5511
upperneck -1.16417 -16.4176 11.7978
head 0.814723 -8.33396 5.18136
rclavicle 1.88597e-014 2.38542e-015
rhumerus -35.2464 5.91366 -84.9607
rradius 36.4498
rwrist 15.7019
rhand -2.13641 -51.7331
rfingers 7.12502
rthumb 23.5426 -80.3122
lclavicle 1.88597e-014 2.38542e-015
lhumerus -36.9391 -3.16417 92.8274
lradius 52.6643
lwrist 0.796883
lhand -8.35673 -36.5251
lfingers 7.12502
lthumb 17.5656 -7.29859
rfemur -4.70288 21.2951 32.6704
rtibia 16.7912
rfoot -16.6376 -35.7658
rtoes 24.6225
lfemur -25.1863 -0.96002 -16.7862
ltibia 67.6644
lfoot -7.69214 5.2832
ltoes -13.1308
